<svg xmlns="http://www.w3.org/2000/svg" viewBox="0 0 400 300" width="400" height="300">
  <defs>
    <linearGradient id="g7" x1="0" y1="0" x2="0" y2="1">
      <stop offset="0" stop-color="#a569bd"/>
      <stop offset="1" stop-color="#5b2a86"/>
    </linearGradient>
  </defs>
  <rect width="400" height="300" fill="url(#g7)"/>
  <g opacity="0.12" fill="#fff">
    <circle cx="60" cy="60" r="40"/><circle cx="350" cy="250" r="55"/>
  </g>
  <!-- tigela -->
  <path d="M120 150 h160 a80 80 0 0 1 -160 0 Z" fill="#fbf3e0"/>
  <ellipse cx="200" cy="150" rx="80" ry="26" fill="#5b1d8a"/>
  <ellipse cx="200" cy="147" rx="80" ry="23" fill="#3a1457"/>
  <circle cx="208" cy="151" r="11" fill="#ffd23f"/><circle cx="192" cy="155" r="10" fill="#c46b2b"/><circle cx="206" cy="155" r="10" fill="#ff5b7f"/><circle cx="239" cy="152" r="12" fill="#ffd23f"/><circle cx="141" cy="153" r="10" fill="#ffd23f"/><circle cx="191" cy="138" r="13" fill="#ffd23f"/><circle cx="198" cy="151" r="10" fill="#c46b2b"/><circle cx="227" cy="152" r="12" fill="#ff5b7f"/><circle cx="251" cy="149" r="8" fill="#ffd23f"/><circle cx="199" cy="155" r="7" fill="#ff5b7f"/>
  <!-- colher -->
  <g transform="rotate(18 300 120)">
    <rect x="296" y="120" width="8" height="90" rx="4" fill="#fbf3e0"/>
    <ellipse cx="300" cy="118" rx="16" ry="22" fill="#fbf3e0"/>
  </g>
</svg>