<svg xmlns="http://www.w3.org/2000/svg" width="1200" height="300" viewBox="0 0 1200 300">
  <defs><linearGradient id="g" x1="0" y1="0" x2="1" y2="1">
    <stop offset="0" stop-color="#0d3b2a"/><stop offset="1" stop-color="#05130d"/></linearGradient></defs>
  <rect width="1200" height="300" fill="url(#g)"/>
  <g opacity=".12" fill="#fff">
    <circle cx="120" cy="80" r="40"/><circle cx="260" cy="200" r="26"/>
    <circle cx="980" cy="70" r="30"/><circle cx="1080" cy="220" r="44"/>
  </g>
  <g transform="translate(150,150)">
    <path d="M-40,-30 L40,-30 L34,40 Q31,52 20,52 L-20,52 Q-31,52 -34,40 Z" fill="#ffffff"/>
    <path d="M-40,-30 L40,-30 L37,-12 L-37,-12 Z" fill="#00704A"/>
    <path d="M40,-22 Q70,-20 68,8 Q66,30 40,30 L40,20 Q58,20 58,4 Q58,-12 40,-12 Z" fill="#ffffff"/>
  </g>
</svg>
