<svg xmlns="http://www.w3.org/2000/svg" width="120" height="120" viewBox="0 0 120 120">
  <!-- Outer ring dark green -->
  <circle cx="60" cy="60" r="58" fill="#1E3932" stroke="#CBA258" stroke-width="3"/>
  <!-- Inner ring -->
  <circle cx="60" cy="60" r="48" fill="none" stroke="#CBA258" stroke-width="1.5"/>
  <!-- Star dots on ring -->
  <circle cx="60" cy="14" r="2.5" fill="#CBA258"/>
  <circle cx="60" cy="106" r="2.5" fill="#CBA258"/>
  <circle cx="14" cy="60" r="2.5" fill="#CBA258"/>
  <circle cx="106" cy="60" r="2.5" fill="#CBA258"/>
  <!-- Siren / mermaid silhouette simplified as coffee cup icon -->
  <g transform="translate(60,64)" fill="#D4E9E2">
    <!-- Cup body -->
    <path d="M-20,-22 L20,-22 L16,24 Q14,30 8,30 L-8,30 Q-14,30 -16,24 Z"/>
    <!-- Cup band -->
    <path d="M-20,-22 L20,-22 L18,-12 L-18,-12 Z" fill="#CBA258"/>
    <!-- Handle -->
    <path d="M20,-18 Q38,-16 36,6 Q34,22 20,22 L20,14 Q28,14 29,2 Q30,-8 20,-10 Z"/>
    <!-- Steam lines -->
    <path d="M-8,-34 q-5,-8 3,-14 M8,-34 q-5,-8 3,-14" stroke="#CBA258" stroke-width="2.5" fill="none" stroke-linecap="round"/>
  </g>
  <!-- Brand text arc (simplified) -->
  <text x="60" y="108" text-anchor="middle" font-family="Georgia, serif" font-size="6" fill="#CBA258" letter-spacing="2">AROMA</text>
</svg>
